<svg xmlns="http://www.w3.org/2000/svg" viewBox="0 0 368 104"><defs><style>.a{fill:#696969;}</style></defs><title>heroku2</title><path class="a" d="M108.08,13.17H52.35a7,7,0,0,0-7,7V83.84a7,7,0,0,0,7,7h55.73a7,7,0,0,0,7-7V20.16A7,7,0,0,0,108.08,13.17Zm3.11,70.68A3.07,3.07,0,0,1,108.08,87H52.35a3.07,3.07,0,0,1-3.11-3.11V20.16a3.07,3.07,0,0,1,3.11-3.11h55.73a3.07,3.07,0,0,1,3.11,3.11V83.84ZM62.84,79.18l8.74-7.77-8.74-7.77ZM94.3,47.73A12.7,12.7,0,0,0,85,44.23,46.3,46.3,0,0,0,70.41,47V24.82H62.84V58.41l5.44-2.52s8.93-4.08,16.7-4.08c3.88,0,4.85,2.14,4.85,4.08v23.3H97.6V55.88A11.82,11.82,0,0,0,94.3,47.73ZM84,37.44h7.77A23.42,23.42,0,0,0,97.6,24.82H89.83A28.67,28.67,0,0,1,84,37.44ZM298.56,55.69V38.41h7.77V55.5c0,3.88,1.36,5.83,4.47,5.83s4.27-1.75,4.27-5.83V38.41h7.57V55.69c0,7.57-3.69,12-12,12S298.56,63.26,298.56,55.69ZM265.94,38.6h7.77V49.09l8-10.49h8.93l-9.71,11.26,10.49,17.48h-8.74l-6.8-11.46-2.14,2.52v8.93h-7.77V38.6ZM229,52.78c0-10.49,7.18-15,14.17-15s14.17,4.47,14.17,15-7.18,15-14.17,15S229,63.46,229,52.78Zm20.39,0c0-5.24-2.33-8.54-6.41-8.54s-6.41,3.3-6.41,8.54,2.33,8.74,6.41,8.74S249.43,58.21,249.43,52.78ZM197.79,38.6H209c7.38,0,11.84,2.52,11.84,9.32,0,4.47-1.94,7.18-5.63,8.35l6,11.07h-8.15l-5.63-9.9h-2.14v9.9h-7.57V38.6Zm11.07,12.82c3.11,0,4.66-1,4.66-3.3s-1.36-3.3-4.66-3.3h-3.3v6.6h3.3ZM168.08,38.6h20.58V45H175.84v4.66H185v6h-9.13v5.24h13.4v6.21H168.08V38.6Zm-35.14,0h7.77V49.28h9.51V38.6H158V67.34h-7.77V55.69H140.7V67.34h-7.77V38.6Z"/></svg>