<svg xmlns="http://www.w3.org/2000/svg" viewBox="0 0 360 180"><defs><style>.a{fill:#696969;}</style></defs><title>Artboard 1</title><path class="a" d="M81.43,37.66H9.08A9,9,0,0,0,0,46.74v82.69a9,9,0,0,0,9.08,9.08H81.43a9,9,0,0,0,9.08-9.08V46.74A9,9,0,0,0,81.43,37.66Zm4,91.76a4,4,0,0,1-4,4H9.08a4,4,0,0,1-4-4V46.74a4,4,0,0,1,4-4H81.43a4,4,0,0,1,4,4v82.69Zm-62.77-6.05L34,113.29,22.69,103.21ZM63.53,82.53c-2-2-5.8-4.54-12.1-4.54a60.11,60.11,0,0,0-18.91,3.53V52.79H22.69V96.4l7.06-3.28s11.6-5.29,21.68-5.29c5,0,6.3,2.77,6.3,5.29v30.25H67.82V93.12A15.34,15.34,0,0,0,63.53,82.53ZM50.17,69.17H60.25a30.41,30.41,0,0,0,7.56-16.39H57.73A37.22,37.22,0,0,1,50.17,69.17Zm278.57,23.7V70.43h10.08V92.62c0,5,1.76,7.56,5.8,7.56s5.55-2.27,5.55-7.56V70.43H360V92.87c0,9.83-4.79,15.63-15.63,15.63S328.74,102.7,328.74,92.87ZM286.39,70.68h10.08V84.3l10.34-13.61h11.6L305.8,85.31,319.41,108H308.07l-8.82-14.87-2.77,3.28V108H286.39V70.68Zm-47.9,18.4c0-13.61,9.33-19.41,18.4-19.41s18.4,5.8,18.4,19.41S266,108.5,256.89,108.5,238.49,103,238.49,89.09Zm26.47,0c0-6.81-3-11.09-8.32-11.09s-8.32,4.29-8.32,11.09,3,11.34,8.32,11.34S265,96.15,265,89.09ZM197.9,70.68h14.62c9.58,0,15.38,3.28,15.38,12.1,0,5.8-2.52,9.33-7.31,10.84L228.4,108H217.82L210.5,95.14h-2.77V108H197.9V70.68Zm14.37,16.64c4,0,6.05-1.26,6.05-4.29s-1.76-4.29-6.05-4.29H208v8.57h4.29ZM159.33,70.68h26.72V79H169.41v6.05h11.85v7.82H169.41v6.81h17.39v8.07H159.33V70.68Zm-45.63,0h10.08V84.55h12.35V70.68h10.08V108H136.13V92.87H123.78V108H113.7V70.68Z"/></svg>