<svg xmlns="http://www.w3.org/2000/svg" viewBox="0 0 278 78"><defs><style>.a{fill:#696969;}</style></defs><title>heroku_1</title><path class="a" d="M63,.17H7.22a7,7,0,0,0-7,7V70.84a7,7,0,0,0,7,7H63a7,7,0,0,0,7-7V7.16A7,7,0,0,0,63,.17Zm3.11,70.68A3.07,3.07,0,0,1,63,74H7.22a3.07,3.07,0,0,1-3.11-3.11V7.16A3.07,3.07,0,0,1,7.22,4.05H63a3.07,3.07,0,0,1,3.11,3.11V70.84ZM17.71,66.18l8.74-7.77-8.74-7.77ZM49.17,34.73a12.7,12.7,0,0,0-9.32-3.5A46.3,46.3,0,0,0,25.28,34V11.82H17.71V45.41l5.44-2.52s8.93-4.08,16.7-4.08c3.88,0,4.85,2.14,4.85,4.08v23.3h7.77V42.88A11.82,11.82,0,0,0,49.17,34.73ZM38.87,24.44h7.77a23.42,23.42,0,0,0,5.83-12.62H44.7A28.67,28.67,0,0,1,38.87,24.44ZM253.43,42.69V25.41h7.77V42.5c0,3.88,1.36,5.83,4.47,5.83s4.27-1.75,4.27-5.83V25.41h7.57V42.69c0,7.57-3.69,12-12,12S253.43,50.26,253.43,42.69ZM220.81,25.6h7.77V36.09l8-10.49h8.93l-9.71,11.26,10.49,17.48h-8.74l-6.8-11.46-2.14,2.52v8.93h-7.77V25.6ZM183.92,39.78c0-10.49,7.18-15,14.17-15s14.17,4.47,14.17,15-7.18,15-14.17,15S183.92,50.46,183.92,39.78Zm20.39,0c0-5.24-2.33-8.54-6.41-8.54s-6.41,3.3-6.41,8.54,2.33,8.74,6.41,8.74S204.3,45.21,204.3,39.78ZM152.66,25.6h11.26c7.38,0,11.84,2.52,11.84,9.32,0,4.47-1.94,7.18-5.63,8.35l6,11.07H168l-5.63-9.9h-2.14v9.9h-7.57V25.6Zm11.07,12.82c3.11,0,4.66-1,4.66-3.3s-1.36-3.3-4.66-3.3h-3.3v6.6h3.3ZM122.95,25.6h20.58V32H130.71v4.66h9.13v6h-9.13v5.24h13.4v6.21H122.95V25.6Zm-35.14,0h7.77V36.28h9.51V25.6h7.77V54.34h-7.77V42.69H95.57V54.34H87.8V25.6Z"/></svg>