<svg xmlns="http://www.w3.org/2000/svg" xmlns:xlink="http://www.w3.org/1999/xlink" viewBox="0 0 128 78"><defs><style>.a,.e{fill:url(#a);}.a{clip-rule:evenodd;}.b,.d{fill:#7c7c7c;}.c{fill:#4d4d4d;}.c,.d,.e{fill-rule:evenodd;}.f{clip-path:url(#c);}.g{fill:none;}.h{fill:url(#d);}.i{fill:url(#e);}.j{fill:url(#f);}.k{fill:url(#g);}.l{fill:url(#h);}.m{fill:url(#i);}</style><linearGradient id="a" x1="52.26" y1="23.23" x2="41.3" y2="45.59" gradientUnits="userSpaceOnUse"><stop offset="0" stop-color="#5c5c5c"/><stop offset="0.47" stop-color="#585858"/><stop offset="0.92" stop-color="#4d4d4d"/><stop offset="1" stop-color="#4a4a4a"/></linearGradient><clipPath id="c"><path class="a" d="M48.06,18a1.46,1.46,0,0,0-1.46,0L34.46,25a1.46,1.46,0,0,0-.73,1.27v14a1.47,1.47,0,0,0,.73,1.27l12.13,7a1.47,1.47,0,0,0,1.47,0l12.13-7a1.47,1.47,0,0,0,.73-1.27v-14A1.46,1.46,0,0,0,60.19,25Z"/></clipPath><linearGradient id="d" x1="45.48" y1="34.93" x2="76.23" y2="12.21" gradientUnits="userSpaceOnUse"><stop offset="0.14" stop-color="#5c5c5c"/><stop offset="0.38" stop-color="#464646"/><stop offset="0.71" stop-color="#2f2f2f"/><stop offset="0.91" stop-color="#262626"/></linearGradient><linearGradient id="e" x1="33.3" y1="15.49" x2="61.35" y2="15.49" gradientUnits="userSpaceOnUse"><stop offset="0.09" stop-color="#262626"/><stop offset="0.29" stop-color="#2f2f2f"/><stop offset="0.62" stop-color="#464646"/><stop offset="0.86" stop-color="#5c5c5c"/></linearGradient><linearGradient id="f" x1="33.3" y1="33.29" x2="61.35" y2="33.29" xlink:href="#e"/><linearGradient id="g" x1="33.3" y1="41.3" x2="61.35" y2="41.3" xlink:href="#e"/><linearGradient id="h" x1="33.3" y1="44.92" x2="61.35" y2="44.92" xlink:href="#e"/><linearGradient id="i" x1="65.43" y1="22.57" x2="48.14" y2="57.86" xlink:href="#a"/></defs><title>node js_1</title><path class="b" d="M63.27,78a2.41,2.41,0,0,1-1.21-.32l-3.84-2.27c-.57-.32-.29-.43-.1-.5a7.66,7.66,0,0,0,1.74-.79.29.29,0,0,1,.29,0l3,1.75a.38.38,0,0,0,.36,0l11.5-6.64a.36.36,0,0,0,.18-.31V55.67a.37.37,0,0,0-.18-.32l-11.5-6.63a.36.36,0,0,0-.35,0L51.6,55.35a.37.37,0,0,0-.18.32V68.94a.35.35,0,0,0,.18.31l3.15,1.82c1.71.85,2.76-.15,2.76-1.16V56.8a.33.33,0,0,1,.33-.33H59.3a.33.33,0,0,1,.33.33V69.9c0,2.28-1.24,3.59-3.41,3.59a4.92,4.92,0,0,1-2.65-.72l-3-1.74a2.43,2.43,0,0,1-1.21-2.1V55.67a2.42,2.42,0,0,1,1.21-2.1l11.5-6.65a2.52,2.52,0,0,1,2.42,0L76,53.57a2.43,2.43,0,0,1,1.21,2.1V68.94A2.43,2.43,0,0,1,76,71l-11.5,6.64A2.41,2.41,0,0,1,63.27,78Z"/><path class="b" d="M66.82,68.86c-5,0-6.09-2.31-6.09-4.25a.33.33,0,0,1,.33-.33h1.49a.33.33,0,0,1,.33.28c.22,1.51.89,2.28,3.94,2.28,2.42,0,3.45-.55,3.45-1.83,0-.74-.29-1.29-4.06-1.66-3.15-.31-5.09-1-5.09-3.52,0-2.32,2-3.7,5.24-3.7,3.68,0,5.51,1.28,5.74,4a.33.33,0,0,1-.33.36H70.28a.33.33,0,0,1-.32-.26c-.36-1.59-1.23-2.1-3.59-2.1-2.65,0-3,.92-3,1.61s.36,1.08,3.93,1.55,5.21,1.13,5.21,3.61S70.47,68.86,66.82,68.86Z"/><path class="b" d="M83.41,54.94a2.22,2.22,0,1,1-2.22-2.22A2.22,2.22,0,0,1,83.41,54.94Zm-4.08,0a1.86,1.86,0,1,0,1.85-1.85A1.86,1.86,0,0,0,79.33,54.93Zm1-1.24h.86c.29,0,.87,0,.87.66a.57.57,0,0,1-.47.61c.34,0,.36.25.41.56a2.45,2.45,0,0,0,.13.66h-.53c0-.12-.09-.75-.09-.79s-.08-.21-.26-.21h-.43v1h-.48Zm.47,1.09h.39a.33.33,0,0,0,.38-.35c0-.34-.24-.34-.36-.34h-.4Z"/><path class="c" d="M27.65,26.07a1.47,1.47,0,0,0-.74-1.28l-12.19-7a1.44,1.44,0,0,0-.67-.19h-.13a1.46,1.46,0,0,0-.67.19l-12.19,7a1.48,1.48,0,0,0-.74,1.28L.35,45a.72.72,0,0,0,.37.64.71.71,0,0,0,.73,0l7.25-4.15a1.48,1.48,0,0,0,.74-1.28V31.35a1.47,1.47,0,0,1,.74-1.27l3.09-1.78a1.47,1.47,0,0,1,.74-.2,1.44,1.44,0,0,1,.73.2l3.08,1.78a1.47,1.47,0,0,1,.74,1.27v8.83a1.49,1.49,0,0,0,.74,1.28l7.24,4.15a.72.72,0,0,0,.74,0,.74.74,0,0,0,.37-.64Z"/><path class="c" d="M86.33.09a.74.74,0,0,0-1.1.64V19.45a.52.52,0,0,1-.77.45L81.4,18.14a1.47,1.47,0,0,0-1.47,0l-12.2,7A1.47,1.47,0,0,0,67,26.45V40.54a1.47,1.47,0,0,0,.74,1.28l12.2,7a1.47,1.47,0,0,0,1.47,0l12.2-7a1.47,1.47,0,0,0,.74-1.28V5.43a1.47,1.47,0,0,0-.76-1.29ZM85.19,35.91a.37.37,0,0,1-.18.32l-4.19,2.41a.37.37,0,0,1-.37,0l-4.19-2.41a.37.37,0,0,1-.18-.32V31.07a.37.37,0,0,1,.18-.32l4.19-2.42a.37.37,0,0,1,.37,0L85,30.75a.37.37,0,0,1,.18.32Z"/><path class="c" d="M126.95,30.95a1.47,1.47,0,0,0,.73-1.27V26.26a1.47,1.47,0,0,0-.73-1.27l-12.12-7a1.47,1.47,0,0,0-1.48,0l-12.19,7a1.47,1.47,0,0,0-.74,1.28V40.34a1.47,1.47,0,0,0,.74,1.28l12.12,6.91a1.47,1.47,0,0,0,1.44,0l7.33-4.07a.74.74,0,0,0,0-1.28l-12.27-7a.74.74,0,0,1-.37-.64V31.08a.74.74,0,0,1,.37-.64l3.82-2.2a.74.74,0,0,1,.74,0l3.82,2.2a.74.74,0,0,1,.37.64v3.47a.74.74,0,0,0,1.11.64Z"/><path class="d" d="M113.91,30.29a.28.28,0,0,1,.28,0l2.34,1.35a.28.28,0,0,1,.14.24v2.7a.28.28,0,0,1-.14.24l-2.34,1.35a.28.28,0,0,1-.28,0l-2.34-1.35a.28.28,0,0,1-.14-.24v-2.7a.28.28,0,0,1,.14-.24Z"/><path class="e" d="M48.06,18a1.46,1.46,0,0,0-1.46,0L34.46,25a1.46,1.46,0,0,0-.73,1.27v14a1.47,1.47,0,0,0,.73,1.27l12.13,7a1.47,1.47,0,0,0,1.47,0l12.13-7a1.47,1.47,0,0,0,.73-1.27v-14A1.46,1.46,0,0,0,60.19,25Z"/><g class="f"><path class="g" d="M46.57,18,34.41,25a1.51,1.51,0,0,0-.78,1.27v14a1.42,1.42,0,0,0,.38.93L47.67,17.87A1.49,1.49,0,0,0,46.57,18Z"/><path class="g" d="M47.73,48.72a1.46,1.46,0,0,0,.34-.14l12.14-7A1.5,1.5,0,0,0,61,40.3v-14a1.45,1.45,0,0,0-.44-1Z"/><path class="h" d="M60.21,25,48,18a1.46,1.46,0,0,0-.38-.15L34,41.23a1.67,1.67,0,0,0,.41.34l12.18,7a1.48,1.48,0,0,0,1.13.14l12.8-23.45A1.6,1.6,0,0,0,60.21,25Z"/><path class="g" d="M61,40.3v-14A1.5,1.5,0,0,0,60.21,25L48,18a1.46,1.46,0,0,0-.45-.16L60.93,40.64A1.35,1.35,0,0,0,61,40.3Z"/><path class="g" d="M34.41,25a1.51,1.51,0,0,0-.78,1.27v14a1.52,1.52,0,0,0,.79,1.27l12.18,7a1.48,1.48,0,0,0,.94.18L34.49,25Z"/><polygon class="i" points="46.19 15.45 46.02 15.54 46.24 15.54 46.19 15.45"/><path class="j" d="M60.22,41.57a1.53,1.53,0,0,0,.72-.93L47.6,17.86a1.49,1.49,0,0,0-1,.16L34.49,25,47.54,48.76a1.47,1.47,0,0,0,.54-.18Z"/><polygon class="k" points="61.35 41.34 61.27 41.21 61.27 41.39 61.35 41.34"/><path class="l" d="M60.22,41.57l-12.14,7a1.47,1.47,0,0,1-.54.18l.24.44,13.49-7.81v-.18l-.33-.57A1.53,1.53,0,0,1,60.22,41.57Z"/><path class="m" d="M60.22,41.57l-12.14,7a1.47,1.47,0,0,1-.54.18l.24.44,13.49-7.81v-.18l-.33-.57A1.53,1.53,0,0,1,60.22,41.57Z"/></g></svg>