<svg xmlns="http://www.w3.org/2000/svg" xmlns:xlink="http://www.w3.org/1999/xlink" viewBox="0 0 368 104"><defs><style>.a,.e{fill:url(#a);}.a{clip-rule:evenodd;}.b,.d{fill:#7c7c7c;}.c{fill:#4d4d4d;}.c,.d,.e{fill-rule:evenodd;}.f{clip-path:url(#c);}.g{fill:none;}.h{fill:url(#d);}.i{fill:url(#e);}.j{fill:url(#f);}.k{fill:url(#g);}.l{fill:url(#h);}.m{fill:url(#i);}</style><linearGradient id="a" x1="169.01" y1="31.55" x2="154.8" y2="60.55" gradientUnits="userSpaceOnUse"><stop offset="0" stop-color="#5c5c5c"/><stop offset="0.47" stop-color="#585858"/><stop offset="0.92" stop-color="#4d4d4d"/><stop offset="1" stop-color="#4a4a4a"/></linearGradient><clipPath id="c"><path class="a" d="M163.56,24.79a1.9,1.9,0,0,0-1.9,0l-15.73,9.08a1.9,1.9,0,0,0-1,1.65V53.69a1.9,1.9,0,0,0,.95,1.65l15.73,9.09a1.9,1.9,0,0,0,1.9,0l15.73-9.09a1.9,1.9,0,0,0,.95-1.65V35.51a1.9,1.9,0,0,0-1-1.65Z"/></clipPath><linearGradient id="d" x1="160.22" y1="46.72" x2="200.1" y2="17.26" gradientUnits="userSpaceOnUse"><stop offset="0.14" stop-color="#5c5c5c"/><stop offset="0.38" stop-color="#464646"/><stop offset="0.71" stop-color="#2f2f2f"/><stop offset="0.91" stop-color="#262626"/></linearGradient><linearGradient id="e" x1="144.42" y1="21.51" x2="180.8" y2="21.51" gradientUnits="userSpaceOnUse"><stop offset="0.09" stop-color="#262626"/><stop offset="0.29" stop-color="#2f2f2f"/><stop offset="0.62" stop-color="#464646"/><stop offset="0.86" stop-color="#5c5c5c"/></linearGradient><linearGradient id="f" x1="144.42" y1="44.6" x2="180.8" y2="44.6" xlink:href="#e"/><linearGradient id="g" x1="144.42" y1="54.98" x2="180.8" y2="54.98" xlink:href="#e"/><linearGradient id="h" x1="144.42" y1="59.67" x2="180.8" y2="59.67" xlink:href="#e"/><linearGradient id="i" x1="186.1" y1="30.69" x2="163.67" y2="76.46" xlink:href="#a"/></defs><title>node js</title><path class="b" d="M183.29,102.58a3.13,3.13,0,0,1-1.56-.42l-5-2.95c-.74-.42-.38-.56-.14-.65a9.93,9.93,0,0,0,2.25-1,.38.38,0,0,1,.37,0l3.83,2.27a.49.49,0,0,0,.46,0l14.92-8.61a.47.47,0,0,0,.23-.4V73.62a.48.48,0,0,0-.23-.41l-14.91-8.6a.47.47,0,0,0-.46,0l-14.91,8.61a.48.48,0,0,0-.24.41V90.83a.46.46,0,0,0,.24.4l4.09,2.36c2.22,1.11,3.57-.2,3.57-1.51v-17a.43.43,0,0,1,.43-.43h1.89a.43.43,0,0,1,.43.43v17c0,3-1.61,4.66-4.42,4.66a6.38,6.38,0,0,1-3.44-.93l-3.91-2.25a3.15,3.15,0,0,1-1.56-2.72V73.62a3.14,3.14,0,0,1,1.56-2.72l14.92-8.62a3.27,3.27,0,0,1,3.14,0l14.92,8.62a3.15,3.15,0,0,1,1.57,2.72V90.83a3.16,3.16,0,0,1-1.57,2.72l-14.92,8.61A3.13,3.13,0,0,1,183.29,102.58Z"/><path class="b" d="M187.9,90.72c-6.53,0-7.9-3-7.9-5.51a.43.43,0,0,1,.43-.43h1.93a.43.43,0,0,1,.43.37c.29,2,1.16,3,5.11,3,3.14,0,4.48-.71,4.48-2.38,0-1-.38-1.67-5.26-2.15-4.08-.4-6.61-1.31-6.61-4.57,0-3,2.54-4.8,6.79-4.8,4.78,0,7.14,1.66,7.44,5.22a.43.43,0,0,1-.43.47h-1.94a.43.43,0,0,1-.42-.34c-.46-2.07-1.59-2.73-4.66-2.73-3.43,0-3.83,1.2-3.83,2.09,0,1.09.47,1.4,5.1,2s6.76,1.46,6.76,4.69S192.63,90.72,187.9,90.72Z"/><path class="b" d="M209.41,72.67a2.88,2.88,0,1,1-2.88-2.88A2.88,2.88,0,0,1,209.41,72.67Zm-5.29,0a2.41,2.41,0,1,0,2.4-2.4A2.41,2.41,0,0,0,204.13,72.66Zm1.33-1.6h1.11c.38,0,1.13,0,1.13.85a.74.74,0,0,1-.61.79c.44,0,.47.32.53.73a3.18,3.18,0,0,0,.17.85h-.68c0-.15-.12-1-.12-1s-.11-.27-.33-.27h-.56v1.29h-.62Zm.61,1.41h.5a.43.43,0,0,0,.49-.46c0-.44-.3-.44-.47-.44h-.52Z"/><path class="c" d="M137.1,35.23a1.91,1.91,0,0,0-1-1.66l-15.82-9.1a1.86,1.86,0,0,0-.87-.25h-.16a1.89,1.89,0,0,0-.87.25l-15.82,9.1a1.92,1.92,0,0,0-1,1.66l0,24.51a.94.94,0,0,0,.48.82.92.92,0,0,0,.95,0l9.4-5.38a1.92,1.92,0,0,0,1-1.66V42.07a1.9,1.9,0,0,1,1-1.65l4-2.31a1.9,1.9,0,0,1,1-.26,1.87,1.87,0,0,1,1,.26l4,2.31a1.9,1.9,0,0,1,1,1.65V53.52a1.93,1.93,0,0,0,1,1.66l9.4,5.38a.93.93,0,0,0,1,0,1,1,0,0,0,.47-.82Z"/><path class="c" d="M213.2,1.54a1,1,0,0,0-1.42.83V26.64a.67.67,0,0,1-1,.58l-4-2.28a1.91,1.91,0,0,0-1.91,0l-15.82,9.13a1.91,1.91,0,0,0-1,1.65V54a1.91,1.91,0,0,0,1,1.65l15.82,9.14a1.91,1.91,0,0,0,1.91,0l15.82-9.14a1.91,1.91,0,0,0,1-1.65V8.46a1.91,1.91,0,0,0-1-1.67ZM211.73,48a.48.48,0,0,1-.24.41l-5.43,3.13a.48.48,0,0,1-.48,0l-5.43-3.13a.48.48,0,0,1-.24-.41V41.72a.48.48,0,0,1,.24-.41l5.43-3.14a.48.48,0,0,1,.48,0l5.43,3.14a.48.48,0,0,1,.24.41Z"/><path class="c" d="M265.88,41.55a1.91,1.91,0,0,0,1-1.65V35.48a1.91,1.91,0,0,0-1-1.65L250.16,24.7a1.91,1.91,0,0,0-1.91,0l-15.82,9.13a1.91,1.91,0,0,0-1,1.65V53.74a1.91,1.91,0,0,0,1,1.66l15.72,9a1.91,1.91,0,0,0,1.87,0l9.51-5.28a1,1,0,0,0,0-1.66l-15.92-9.14a1,1,0,0,1-.48-.83V41.73a1,1,0,0,1,.48-.83l5-2.86a1,1,0,0,1,1,0l5,2.86a1,1,0,0,1,.48.83v4.5a1,1,0,0,0,1.44.83Z"/><path class="d" d="M249,40.7a.37.37,0,0,1,.37,0l3,1.75a.37.37,0,0,1,.18.32v3.51a.37.37,0,0,1-.18.32l-3,1.75a.37.37,0,0,1-.37,0l-3-1.75a.37.37,0,0,1-.18-.32V42.77a.37.37,0,0,1,.18-.32Z"/><path class="e" d="M163.56,24.79a1.9,1.9,0,0,0-1.9,0l-15.73,9.08a1.9,1.9,0,0,0-1,1.65V53.69a1.9,1.9,0,0,0,.95,1.65l15.73,9.09a1.9,1.9,0,0,0,1.9,0l15.73-9.09a1.9,1.9,0,0,0,.95-1.65V35.51a1.9,1.9,0,0,0-1-1.65Z"/><g class="f"><path class="g" d="M161.63,24.79l-15.77,9.08a2,2,0,0,0-1,1.65V53.69a1.84,1.84,0,0,0,.49,1.21l17.71-30.3A1.93,1.93,0,0,0,161.63,24.79Z"/><path class="g" d="M163.14,64.6a1.89,1.89,0,0,0,.44-.18l15.75-9.09a1.94,1.94,0,0,0,1-1.65V35.51a1.88,1.88,0,0,0-.57-1.32Z"/><path class="h" d="M179.32,33.87l-15.78-9.08a1.89,1.89,0,0,0-.49-.2l-17.71,30.3a2.17,2.17,0,0,0,.53.44l15.8,9.09a1.92,1.92,0,0,0,1.47.18l16.61-30.41A2.07,2.07,0,0,0,179.32,33.87Z"/><path class="g" d="M180.32,53.69V35.51a2,2,0,0,0-1-1.65l-15.78-9.08a1.89,1.89,0,0,0-.58-.21l17.3,29.55A1.75,1.75,0,0,0,180.32,53.69Z"/><path class="g" d="M145.87,33.87a2,2,0,0,0-1,1.65V53.69a2,2,0,0,0,1,1.65l15.8,9.09a1.92,1.92,0,0,0,1.22.24L146,33.81Z"/><polygon class="i" points="161.14 21.45 160.92 21.57 161.21 21.57 161.14 21.45"/><path class="j" d="M179.33,55.33a2,2,0,0,0,.93-1.21L163,24.58a1.93,1.93,0,0,0-1.34.21l-15.67,9,16.93,30.84a1.9,1.9,0,0,0,.69-.24Z"/><polygon class="k" points="180.8 55.04 180.7 54.86 180.7 55.1 180.8 55.04"/><path class="l" d="M179.33,55.33l-15.75,9.09a1.9,1.9,0,0,1-.69.24l.31.57L180.7,55.1v-.24l-.43-.74A2,2,0,0,1,179.33,55.33Z"/><path class="m" d="M179.33,55.33l-15.75,9.09a1.9,1.9,0,0,1-.69.24l.31.57L180.7,55.1v-.24l-.43-.74A2,2,0,0,1,179.33,55.33Z"/></g></svg>
