<svg xmlns="http://www.w3.org/2000/svg" viewBox="0 0 364 78"><defs><style>.a{fill:#737373;}.b{fill:#333;}.c{fill:#4f4f4f;}.d{fill:#878787;}</style></defs><title>postgre_1</title><path class="a" d="M311.66,21.51a22.84,22.84,0,0,0-11,2.42c-6,3.3-9,8.6-9.71,15.3-.73,7.08.54,13.6,5.87,18.76,5.75,5.57,17.41,7.13,24.88,3.4a1.72,1.72,0,0,1,2.3.22c1.28,1.2,2.66,2.29,4,3.41,1.14,1,1.16,1,2.46-.53s1.22-1.4.26-2.17c-1.4-1.14-2.79-2.31-4.2-3.44-.52-.42-.73-.75-.13-1.29,3.64-3.34,5.21-7.65,5.63-12.43.51-5.84-.31-11.41-3.93-16.24C324,23.41,318.23,21.57,311.66,21.51ZM327,49.89a14.77,14.77,0,0,1-10.24,9.68,20.36,20.36,0,0,1-5.14.61,16.74,16.74,0,0,1-16.52-14.47,26.57,26.57,0,0,1,.45-9.15c1.81-6.83,6.32-10.68,13.27-11.75,9.47-1.46,17.26,3.89,19,13.24A22.61,22.61,0,0,1,327,49.89Z"/><path class="a" d="M282.92,42.14c-.79-.24-1.57-.48-2.37-.69-4.51-1.19-9.16-1.76-13.61-3.16a5.91,5.91,0,0,1-4.45-6.18A6.43,6.43,0,0,1,267,25.53a21.11,21.11,0,0,1,7.8-.84c6,.22,8.59,2.38,9.84,8.18.14.66.42.92,1.09.91.92,0,1.45,0,2.3,0,.59,0,.9-.2.87-.87-.18-3.57-1.29-6.67-4.43-8.71-3.36-2.19-7.16-2.59-11.78-2.57a26.29,26.29,0,0,0-6.28.7c-5.24,1.24-7.73,4.21-7.93,9.45-.21,5.47,1.75,8.28,7.09,10,4.35,1.38,8.9,1.89,13.31,3,2,.51,4.1.86,5.55,2.6,3,3.58,1.32,9.94-3,11.59a20.43,20.43,0,0,1-10.87.71c-6-1-8.18-3.45-9-9.41-.07-.51,0-1-.77-1-.93,0-1.87,0-2.8,0-.6,0-.72.31-.68.84.39,5.53,2,9.67,7.91,11.67a27.68,27.68,0,0,0,18.26,0,9,9,0,0,0,6.29-7C290.93,48.19,289.09,44,282.92,42.14Z"/><path class="b" d="M212.23,38.68c-1.13,0-1.79.15-1.57,1.49a10.8,10.8,0,0,1,0,1.76l-.34.22A8.92,8.92,0,0,0,202.5,38c-3.2-.06-6.23.4-8.74,2.64-3.79,3.39-4.29,11.43-.89,15.77,2.24,2.86,5.43,3.52,8.83,3.51s6.58-.82,9-4.12c0,1.78.06,3,0,4.3-.24,4.57-2.38,6.8-6.91,7.21a17.61,17.61,0,0,1-2.46,0c-3.07-.15-5.75-.83-6.67-4.39-.32-1.23-1.61-.54-2.41-.51-1,0-.35.86-.26,1.25a6.32,6.32,0,0,0,4.6,5.07,18.74,18.74,0,0,0,6.5.71c7.57-.35,10.41-3.34,10.41-10.91,0-6.2,0-12.4,0-18.6C213.47,39.07,213.31,38.67,212.23,38.68Zm-9.94,19.1c-5.76-.06-8.73-3-8.73-8.74,0-5.47,3.25-8.73,8.67-8.71,5.24,0,8.45,3.29,8.45,8.59S207.39,57.83,202.28,57.77Z"/><path class="b" d="M120.37,27.35c-4.94-.05-9.88,0-14.82,0-1.09,0-1.4.35-1.39,1.42,0,5,0,10,0,15s0,10.21,0,15.31c0,.93.16,1.55,1.25,1.32.84-.18,2.2.61,2.14-1.31-.11-3.67,0-7.36-.09-11,0-1.34.26-1.77,1.68-1.75,4,.07,8,.18,12-.12,5.56-.42,8.74-4.36,8.46-9.94S126.12,27.41,120.37,27.35Zm5.8,10.85c-.43,3.1-2.06,4.91-5.16,5.29-4.2.52-8.43.12-12.65.23-.79,0-.87-.44-.87-1.06,0-3.89,0-7.79,0-11.68,0-.95.42-1.06,1.2-1,1.86,0,3.73,0,5.59,0a64.29,64.29,0,0,1,6.9.22,5.37,5.37,0,0,1,4.93,4.93A10.3,10.3,0,0,1,126.17,38.2Z"/><path class="a" d="M362.23,58.9c-7.13,0-14.59,0-21.73.05-1.42,0-1.7-.43-1.69-1.75.06-9.93,0-19.87,0-29.8,0-1,0-2,0-3,0-1.72,0-1.84-1.9-1.84-2.11,0-2.08.06-2.08,2.28q0,8.81,0,17.62c0,6.09,0,12.18,0,18.28,0,1.2.27,1.58,1.54,1.57,8.51-.07,17,0,25.52,0,1.74,0,1.74-.47,1.74-1.78C363.66,58.9,363.41,58.9,362.23,58.9Z"/><path class="b" d="M247.43,39.32c-4.43-2-9.06-2-13.17.93s-5.36,9.27-3.21,14.34c2.22,5.23,8.08,7.74,14.23,6.13,3.41-.9,5.91-2.8,7.08-6.22.12-.36.51-.81,0-1.14a2.65,2.65,0,0,0-3,1c-1.62,3.68-4.81,5.2-9.4,4.46a8,8,0,0,1-6.83-7.19c-.12-1.2.26-1.5,1.41-1.47,2.85.07,5.7,0,8.56,0h8.89c.7,0,1.29,0,1.2-1C252.76,45,251.32,41.12,247.43,39.32Zm1.06,8.79c-2.35.1-4.5,0-6.85,0-2.52,0-5,0-7.56,0-.81,0-1-.23-.91-1a8,8,0,0,1,7.94-7,8.46,8.46,0,0,1,8.86,6.3C250.27,47.68,250.26,48,248.49,48.12Z"/><path class="b" d="M171.14,48.72c-2.76-.47-5.53-.83-8.28-1.34-2.27-.43-3.24-1.41-3.3-3.05-.06-1.88,1.08-3.29,3.21-3.79a14.77,14.77,0,0,1,5.56-.28c2.47.36,4.29,1.46,4.78,4.21.24,1.37,1.52.59,2.31.67,1,.1.58-.7.52-1.17a5.57,5.57,0,0,0-3.48-4.83,17,17,0,0,0-12.84.1c-2,.8-3.1,3.18-2.88,5.63a4.63,4.63,0,0,0,3.68,4.49c3.28.92,6.68,1.24,10,1.86,2.25.42,3.34,1.46,3.44,3.32a3.61,3.61,0,0,1-3,3.92,15.69,15.69,0,0,1-8.3-.08,4.36,4.36,0,0,1-3.25-3.17c-.37-1.45-1.3-1.92-2.76-1.57-.6.14-.48.49-.43.85a6.52,6.52,0,0,0,4.32,5.7,22.17,22.17,0,0,0,6.44.91,18.69,18.69,0,0,0,5.88-.87c2.2-.84,3.74-2.25,4.07-4.71C177.31,51.79,175.37,49.45,171.14,48.72Z"/><path class="b" d="M142.06,38c-7.08-.09-11.47,4.27-11.52,11.46s4.19,11.62,11.28,11.7c7.38.09,11.8-4.19,11.86-11.48S149.53,38.09,142.06,38Zm4.14,20c-3.53,1.4-7.13,1.43-10.18-1.28s-3.54-9.75-.78-13.38c2.39-3.14,8.3-4,12-1.73,3,1.85,3.48,4.86,3.55,7.87C150.74,53.22,149.88,56.52,146.2,58Z"/><path class="b" d="M189,41c.91,0,1.39-.05,1.38-1.18s-.58-1.08-1.34-1-1.54,0-2.3,0c-1,.1-1.39-.22-1.33-1.27.08-1.42,0-2.85,0-4.28,0-1,0-1.72-1.41-1.72s-1.47.68-1.42,1.71,0,2,0,3c0,2.48,0,2.56-2.48,2.54-1.13,0-1.22.48-1.21,1.38,0,1.1.78.84,1.39.86,2.31.07,2.31.06,2.32,2.4q0,3,0,5.93h0c0,2.47-.06,4.94,0,7.41.07,2.11,1,3.24,2.87,3.69a13.93,13.93,0,0,0,3.76.25c1.25,0,1-.86,1-1.6.05-1.08-.64-.7-1.2-.67-2.85.14-3.67-.61-3.69-3.48,0-3.46,0-6.91,0-10.37S185.45,40.91,189,41Z"/><path class="b" d="M229.06,38.09c-3.33-.07-6.62,0-8.5,3.77,0-.69-.06-1.38,0-2.06.11-1.14-.61-1.08-1.36-1s-1.55-.26-1.54,1c.06,6.48.06,13,0,19.43,0,.88.31,1.08,1.14,1.14,1.32.1,1.83-.25,1.76-1.69-.13-2.68-.06-5.38-.05-8.07a21,21,0,0,1,.32-4.26c.82-3.95,3.2-5.8,7.25-5.59a5.81,5.81,0,0,1,.82.06c.75.15,1.08-.2.9-.88S230.53,38.12,229.06,38.09Z"/><path class="b" d="M72.82,44.74c-.37,0-.73.1-1.09.17a21.85,21.85,0,0,1-5.75.46c-.75-.05-.76-.06-.37-.72A77.78,77.78,0,0,0,73.55,26,38.81,38.81,0,0,0,75.3,13.44a8.4,8.4,0,0,0-1.46-4.88A20.81,20.81,0,0,0,63,1.11a30.11,30.11,0,0,0-17.45.39,1.43,1.43,0,0,1-.8.11A22.51,22.51,0,0,0,41.29,1a18.75,18.75,0,0,0-11,1.91,1.27,1.27,0,0,1-1.1.12,42,42,0,0,0-5.68-1.38,28.17,28.17,0,0,0-11.76.07A13.56,13.56,0,0,0,2.63,8.59C.47,12.59.13,17,.45,21.38a63.6,63.6,0,0,0,2,10.48,94.07,94.07,0,0,0,6,17.73A23.05,23.05,0,0,0,12.57,56c2.55,2.62,5.62,2.82,8.1.47.39-.38.55-.35.83.06a2.24,2.24,0,0,0,.93.69,13.86,13.86,0,0,0,3.42,1,17.53,17.53,0,0,0,5.8.48,10.84,10.84,0,0,0,3.16-1.11,2,2,0,0,1,.09.86,75,75,0,0,0,1,12.49,8.64,8.64,0,0,0,8,6.94,17.8,17.8,0,0,0,7.95-1.32,9.74,9.74,0,0,0,6.33-7.26,56.12,56.12,0,0,0,1-5.84c.31-2.44.58-4.88.85-7.33,0-.31,0-.49.47-.42a18.66,18.66,0,0,0,6.45-.22,11.13,11.13,0,0,0,5.83-2.61,8.87,8.87,0,0,0,3-5.19A2.52,2.52,0,0,0,72.82,44.74Zm.64,4.1a4.88,4.88,0,0,1-1.24,1.55c-2.72,2.49-6,3.37-9.61,3.59a12.07,12.07,0,0,1-3.23-.16c-.6-.13-.88.06-1,.7-.35,3-.71,5.93-1.11,8.89-.21,1.57-.45,3.13-.78,4.69a9,9,0,0,1-6.71,7.2c-2.2.65-4.45,1.12-6.71.38a7.24,7.24,0,0,1-4.75-4.35,22.22,22.22,0,0,1-1.27-7.08c-.19-3.05-.22-6.11-.2-9.17,0-.11,0-.22,0-.51a9.72,9.72,0,0,1-4.65,2.31,12.06,12.06,0,0,1-7.15-.76A3.78,3.78,0,0,1,23.62,55,1.83,1.83,0,0,1,24,52.23a7.72,7.72,0,0,1,2.82-1q1-.28,2.07-.52c1.48-.34,2.21-1.52,3.13-2.68a9.68,9.68,0,0,1-4-1.06c-.34-.18-.45.11-.61.28-1.83,2-3.6,4-5.33,6A10.61,10.61,0,0,1,20.36,55a4.59,4.59,0,0,1-6.11-.18,15.8,15.8,0,0,1-3.88-5.3c-3.13-6.29-4.93-13-6.43-19.84a53.73,53.73,0,0,1-1.24-7.18A25.94,25.94,0,0,1,3.85,11.66,11.4,11.4,0,0,1,12.38,4a28,28,0,0,1,13.24.3A37.4,37.4,0,0,1,30,5.61a.75.75,0,0,0,.77-.06C34.24,3.12,38.13,3,42.09,3.33a8.13,8.13,0,0,1,1.5.2,7.5,7.5,0,0,0,3.85-.26c5.71-1.38,11.38-1.4,16.91.84a18.33,18.33,0,0,1,7.52,5.76A7.19,7.19,0,0,1,73,13.43a28,28,0,0,1-.9,10.92,70.68,70.68,0,0,1-9,21.19,3.47,3.47,0,0,1-.26.41c-.34.4-.15.59.26.73A9.45,9.45,0,0,0,67,47a36.67,36.67,0,0,0,3.68-.56,4.13,4.13,0,0,1,1.51,0A1.71,1.71,0,0,1,73.46,48.84Z"/><path class="a" d="M59.48,45.66a20.72,20.72,0,0,1-2-2.94c-1.25-2.38-2.53-4.74-3.72-7.15A23.66,23.66,0,0,1,51,27.07a5.56,5.56,0,0,1,3.9-6.15,11.16,11.16,0,0,1,4-.45l1.25.06a22.83,22.83,0,0,0-3.5-6.41C52.5,8.62,47,5.55,40,5.37c-5.8-.15-10.1,2.3-12.77,7.47a22.3,22.3,0,0,0-2.05,6,21.79,21.79,0,0,0-.54,3.87,1.16,1.16,0,0,0,.68-.24,14.65,14.65,0,0,1,5.8-1.61,5.51,5.51,0,0,1,6.12,4.59c.25,1,.43,2.11.59,3.18a20.7,20.7,0,0,1-1.25,11.76,50.85,50.85,0,0,0-2.05,5.26c-.13.42-.1.6.39.54a2.6,2.6,0,0,1,1.09.13,4.52,4.52,0,0,1,3.12,4.41c-.06,5.08-.15,10.16.28,15.23a11.76,11.76,0,0,0,1.24,5A5.33,5.33,0,0,0,46,73.83a16,16,0,0,0,3.1-.62,6.9,6.9,0,0,0,5.3-5.71c.37-1.87.64-3.76.88-5.65.48-3.76,1-7.51,1.23-11.3.1-2,.77-3.6,2.82-4.29C59.83,46.1,59.66,45.9,59.48,45.66Z"/><path class="a" d="M25.47,45.09a11.08,11.08,0,0,1-3.36-9.52,47.52,47.52,0,0,0,.27-8.33,31.94,31.94,0,0,1,.47-8A23.94,23.94,0,0,1,26.72,9.5c.52-.72,1.11-1.39,1.74-2.16-.8-.23-1.53-.45-2.26-.63a27.86,27.86,0,0,0-11.52-.91,10.66,10.66,0,0,0-7.9,5.08A15.28,15.28,0,0,0,4.91,17a29.83,29.83,0,0,0,.54,9.24l5.62,19.63a24.53,24.53,0,0,0,3.14,5.73,8.44,8.44,0,0,0,1.17,1.26c1.52,1.3,2.79,1.28,4.15-.19,2.08-2.24,4-4.65,6.09-6.85C26,45.42,25.67,45.28,25.47,45.09Z"/><path class="a" d="M49.47,5.36A25.32,25.32,0,0,1,60.33,15.63c1.79,3,2.9,6.11,2.13,9.7a23.41,23.41,0,0,0-.17,8.57A21.62,21.62,0,0,1,62.53,38,12.06,12.06,0,0,1,61,43.47c-.14.25-.23.5,0,.66s.3-.19.41-.32a5.78,5.78,0,0,0,.41-.63,70.4,70.4,0,0,0,7.78-18.26A32.6,32.6,0,0,0,71,15a6,6,0,0,0-1-3.58,17.48,17.48,0,0,0-3.92-3.66,20.09,20.09,0,0,0-11.92-3.2,25.71,25.71,0,0,0-4.9.55C49.26,5.28,49.37,5.32,49.47,5.36Z"/><path class="a" d="M32.39,45.17a41,41,0,0,1,2-5.27,16.88,16.88,0,0,0,1.28-4.06,25.47,25.47,0,0,0-.52-9.71c-.46-2.26-1.68-3.21-4-3.11a12.82,12.82,0,0,0-6.3,2.18.72.72,0,0,0-.37.74c.07,1,.1,2,.15,3a42.05,42.05,0,0,1-.27,5.64,10.56,10.56,0,0,0,.51,5.82,8.1,8.1,0,0,0,6.79,5.23C32.09,45.71,32.27,45.58,32.39,45.17ZM30.23,25.5c-.22-.51-.11-.93.44-1.1a3.46,3.46,0,0,1,3.09.43A.71.71,0,0,1,33.93,26a2.18,2.18,0,0,1-1.66.86A2.45,2.45,0,0,1,30.23,25.5Z"/><path class="a" d="M60.48,23.38c.06-.47-.09-.64-.58-.67a18.19,18.19,0,0,0-3.16,0c-2.44.28-3.62,1.6-3.54,4a14.79,14.79,0,0,0,1,4.48,72.75,72.75,0,0,0,4.39,9c.25.48.49,1,.81,1.59.13-.31.2-.45.26-.6a13.87,13.87,0,0,0,.46-6.87,26.42,26.42,0,0,1-.22-6.66C60.12,26.25,60.29,24.82,60.48,23.38ZM57.66,25.5a1.83,1.83,0,0,1-2.58-.25.64.64,0,0,1,.14-1.09,3.65,3.65,0,0,1,1.91-.48c.43,0,1.09-.07,1.28.54S58.07,25.18,57.66,25.5Z"/><path class="a" d="M35.57,48.44a1,1,0,0,0-1.19.21,13,13,0,0,0-1.21,1.4,7.35,7.35,0,0,1-5,3.06,13.28,13.28,0,0,0-2.55.7,6.7,6.7,0,0,0,2.93.89,8.25,8.25,0,0,0,8-3A2.19,2.19,0,0,0,35.57,48.44Z"/><path class="c" d="M69.86,48.81h0c-.93.11-1.86.26-2.8.33a8.93,8.93,0,0,1-5.79-1,.64.64,0,0,0-.52-.07,2.07,2.07,0,0,0-2,2.06c-.17,1.12-.07,1.29,1,1.44A15.91,15.91,0,0,0,67,50.86,9.6,9.6,0,0,0,70.3,49C70.19,48.79,70,48.84,69.86,48.81Z"/><path class="d" d="M70.3,48.68a4.52,4.52,0,0,0-.44.13c.18,0,.4-.19.44.16.1,0,.23-.08.22-.21S70.37,48.67,70.3,48.68Z"/><path class="d" d="M69.86,48.81h0c.15,0,.34,0,.44.16C70.26,48.61,70,48.78,69.86,48.81Z"/></svg>