<svg xmlns="http://www.w3.org/2000/svg" viewBox="0 0 368 104"><defs><style>.a{fill:#737373;}.b{fill:#333;}.c{fill:#4f4f4f;}.d{fill:#878787;}</style></defs><title>postgre</title><path class="a" d="M298,37.62a20.08,20.08,0,0,0-9.64,2.12c-5.32,2.9-7.93,7.56-8.53,13.45-.64,6.22.47,12,5.16,16.49,5.06,4.89,15.3,6.26,21.87,3a1.51,1.51,0,0,1,2,.19c1.13,1.05,2.34,2,3.52,3,1,.84,1,.85,2.16-.47s1.07-1.23.23-1.91c-1.23-1-2.45-2-3.69-3-.45-.37-.64-.66-.12-1.14,3.2-2.94,4.58-6.72,4.95-10.93.45-5.14-.27-10-3.45-14.28C308.84,39.3,303.74,37.68,298,37.62Zm13.47,25a13,13,0,0,1-9,8.51,17.9,17.9,0,0,1-4.52.53A14.72,14.72,0,0,1,283.39,58.9a23.35,23.35,0,0,1,.39-8c1.59-6,5.55-9.39,11.66-10.33,8.32-1.29,15.17,3.42,16.68,11.63A19.87,19.87,0,0,1,311.43,62.58Z"/><path class="a" d="M272.7,55.76c-.69-.21-1.38-.42-2.08-.61-4-1-8-1.55-12-2.78a5.2,5.2,0,0,1-3.91-5.43,5.65,5.65,0,0,1,3.92-5.79,18.55,18.55,0,0,1,6.86-.74c5.24.19,7.55,2.09,8.65,7.19.13.58.37.81,1,.8.81,0,1.28,0,2,0,.52,0,.79-.18.76-.76-.16-3.14-1.13-5.86-3.89-7.66-3-1.92-6.29-2.27-10.36-2.26a23.11,23.11,0,0,0-5.52.62c-4.61,1.09-6.79,3.7-7,8.3-.19,4.81,1.54,7.28,6.23,8.78,3.82,1.22,7.82,1.66,11.7,2.66,1.75.45,3.61.75,4.88,2.29,2.6,3.14,1.16,8.74-2.67,10.19a18,18,0,0,1-9.56.62c-5.24-.91-7.19-3-7.9-8.27-.06-.45,0-.88-.68-.86-.82,0-1.64,0-2.46,0-.53,0-.63.28-.6.74.34,4.86,1.76,8.5,7,10.26a24.33,24.33,0,0,0,16.05,0,7.92,7.92,0,0,0,5.53-6.17C279.74,61.07,278.13,57.4,272.7,55.76Z"/><path class="b" d="M210.56,52.72c-1,0-1.57.14-1.38,1.31a9.49,9.49,0,0,1,0,1.55l-.3.19A7.84,7.84,0,0,0,202,52.16c-2.81,0-5.48.35-7.68,2.32-3.33,3-3.77,10-.78,13.86,2,2.51,4.77,3.09,7.76,3.08s5.79-.72,7.87-3.62c0,1.56,0,2.67,0,3.78-.21,4-2.1,6-6.08,6.34a15.48,15.48,0,0,1-2.17,0c-2.7-.13-5.05-.73-5.87-3.86-.28-1.08-1.41-.48-2.12-.45-.9,0-.3.76-.23,1.1a5.55,5.55,0,0,0,4,4.46,16.47,16.47,0,0,0,5.72.63c6.66-.31,9.15-2.94,9.15-9.59,0-5.45,0-10.9,0-16.35C211.65,53.06,211.51,52.71,210.56,52.72ZM201.82,69.5c-5.07-.05-7.67-2.66-7.68-7.68,0-4.81,2.85-7.67,7.62-7.65,4.61,0,7.43,2.89,7.43,7.55S206.31,69.55,201.82,69.5Z"/><path class="b" d="M129.81,42.76c-4.34,0-8.68,0-13,0-1,0-1.23.31-1.22,1.25,0,4.39,0,8.78,0,13.17s0,9,0,13.46c0,.82.14,1.36,1.1,1.16.74-.16,1.93.54,1.88-1.15-.09-3.23,0-6.47-.08-9.7,0-1.18.23-1.56,1.48-1.54,3.52.06,7.06.16,10.56-.11,4.88-.37,7.68-3.83,7.43-8.73S134.87,42.81,129.81,42.76Zm5.1,9.54c-.38,2.73-1.81,4.31-4.54,4.65-3.69.46-7.41.1-11.12.2-.7,0-.76-.39-.76-.93,0-3.42,0-6.84,0-10.27,0-.83.37-.94,1.05-.92,1.64,0,3.28,0,4.92,0a56.51,56.51,0,0,1,6.06.19,4.72,4.72,0,0,1,4.33,4.33A9,9,0,0,1,134.91,52.3Z"/><path class="a" d="M342.41,70.5c-6.27,0-12.83,0-19.1,0-1.25,0-1.49-.37-1.49-1.54,0-8.73,0-17.46,0-26.2,0-.92,0-1.73,0-2.65,0-1.52,0-1.62-1.67-1.62-1.85,0-1.83,0-1.83,2q0,7.74,0,15.49c0,5.36,0,10.71,0,16.06,0,1.06.24,1.39,1.35,1.38,7.48-.06,15,0,22.43,0,1.53,0,1.53-.41,1.53-1.56C343.67,70.49,343.45,70.49,342.41,70.5Z"/><path class="b" d="M241.5,53.28a11.16,11.16,0,0,0-11.57.82c-3.59,2.52-4.71,8.15-2.82,12.61s7.1,6.81,12.51,5.39a8.27,8.27,0,0,0,6.22-5.47c.11-.32.44-.71,0-1a2.33,2.33,0,0,0-2.64.85c-1.42,3.23-4.23,4.57-8.26,3.92a7.06,7.06,0,0,1-6-6.32c-.11-1.06.23-1.31,1.24-1.29,2.51.06,5,0,7.52,0h7.81c.62,0,1.14,0,1.06-.88C246.19,58.25,244.92,54.86,241.5,53.28Zm.93,7.73c-2.07.09-4,0-6,0s-4.43,0-6.64,0c-.71,0-.91-.2-.8-.92a7,7,0,0,1,7-6.11,7.44,7.44,0,0,1,7.79,5.54C244,60.63,244,60.95,242.43,61Z"/><path class="b" d="M174.44,61.55c-2.42-.41-4.86-.73-7.28-1.18-2-.37-2.85-1.24-2.9-2.68a3.24,3.24,0,0,1,2.82-3.33A13,13,0,0,1,172,54.1c2.17.32,3.77,1.28,4.2,3.7.21,1.21,1.33.52,2,.59s.51-.62.45-1a4.89,4.89,0,0,0-3.06-4.24,15,15,0,0,0-11.28.09c-1.79.7-2.73,2.79-2.53,5A4.07,4.07,0,0,0,165,62.11c2.89.81,5.87,1.09,8.81,1.63,2,.37,2.94,1.28,3,2.92a3.17,3.17,0,0,1-2.68,3.44,13.79,13.79,0,0,1-7.29-.07A3.83,3.83,0,0,1,164,67.24a1.75,1.75,0,0,0-2.42-1.38c-.53.13-.42.43-.38.74a5.73,5.73,0,0,0,3.8,5,19.48,19.48,0,0,0,5.66.8,16.43,16.43,0,0,0,5.17-.77,5,5,0,0,0,3.58-4.14C179.86,64.24,178.16,62.18,174.44,61.55Z"/><path class="b" d="M148.88,52.12c-6.22-.08-10.08,3.75-10.13,10.07s3.68,10.21,9.92,10.29c6.48.08,10.38-3.68,10.43-10.09S155.45,52.2,148.88,52.12Zm3.64,17.57c-3.1,1.23-6.27,1.26-9-1.13s-3.11-8.57-.68-11.76c2.1-2.76,7.3-3.55,10.55-1.52,2.61,1.63,3.06,4.27,3.12,6.92C156.51,65.5,155.75,68.4,152.52,69.68Z"/><path class="b" d="M190.16,54.74c.8,0,1.22,0,1.21-1s-.51-.95-1.18-.92-1.35,0-2,0c-.87.08-1.22-.2-1.17-1.11.07-1.25,0-2.51,0-3.76,0-.9,0-1.51-1.24-1.51s-1.29.6-1.25,1.51,0,1.74,0,2.6c0,2.18,0,2.25-2.18,2.23-1,0-1.08.42-1.06,1.21,0,1,.69.74,1.22.75,2,.06,2,.05,2,2.11q0,2.6,0,5.21h0c0,2.17-.05,4.34,0,6.51a3,3,0,0,0,2.52,3.24,12.25,12.25,0,0,0,3.3.22c1.1,0,.86-.75.89-1.4,0-1-.56-.62-1.06-.59-2.51.12-3.23-.54-3.24-3.06,0-3,0-6.08,0-9.12S187,54.68,190.16,54.74Z"/><path class="b" d="M225.35,52.2c-2.93-.06-5.82,0-7.47,3.31,0-.6,0-1.21,0-1.81.1-1-.54-1-1.19-.91s-1.37-.23-1.36.92c.05,5.69.05,11.39,0,17.08,0,.77.27.95,1,1,1.16.09,1.61-.22,1.55-1.48-.11-2.36-.05-4.73,0-7.09a18.47,18.47,0,0,1,.29-3.74c.72-3.47,2.81-5.1,6.37-4.92a5.11,5.11,0,0,1,.72.05c.66.13.95-.18.79-.78S226.65,52.22,225.35,52.2Z"/><path class="b" d="M88,58c-.32,0-.64.08-1,.15A19.21,19.21,0,0,1,82,58.6c-.66,0-.66-.05-.32-.64a68.37,68.37,0,0,0,7-16.38,34.11,34.11,0,0,0,1.54-11,7.39,7.39,0,0,0-1.28-4.29,18.29,18.29,0,0,0-9.52-6.55A26.47,26.47,0,0,0,64,20a1.26,1.26,0,0,1-.7.1,19.79,19.79,0,0,0-3-.5,16.48,16.48,0,0,0-9.69,1.67,1.12,1.12,0,0,1-1,.1,37,37,0,0,0-5-1.21,24.76,24.76,0,0,0-10.34.06,11.92,11.92,0,0,0-8,6c-1.9,3.52-2.2,7.36-1.92,11.25a55.91,55.91,0,0,0,1.73,9.21,82.69,82.69,0,0,0,5.23,15.58A20.26,20.26,0,0,0,35.06,68c2.24,2.31,4.94,2.48,7.12.41.35-.33.48-.31.73.05a2,2,0,0,0,.82.6,12.18,12.18,0,0,0,3,.91,15.41,15.41,0,0,0,5.1.42,9.53,9.53,0,0,0,2.78-1,1.72,1.72,0,0,1,.08.75,65.9,65.9,0,0,0,.87,11,7.6,7.6,0,0,0,7,6.1,15.65,15.65,0,0,0,7-1.16,8.57,8.57,0,0,0,5.56-6.38A49.33,49.33,0,0,0,76,74.55c.28-2.14.51-4.29.75-6.44,0-.27,0-.43.41-.37a16.4,16.4,0,0,0,5.67-.19,9.78,9.78,0,0,0,5.12-2.3,7.8,7.8,0,0,0,2.66-4.56A2.21,2.21,0,0,0,88,58Zm.56,3.6A4.29,4.29,0,0,1,87.49,63,13.07,13.07,0,0,1,79,66.17,10.61,10.61,0,0,1,76.21,66c-.52-.11-.78.06-.84.61-.31,2.61-.63,5.21-1,7.81-.18,1.38-.39,2.76-.68,4.12a7.89,7.89,0,0,1-5.9,6.33,9.78,9.78,0,0,1-5.9.34,6.37,6.37,0,0,1-4.18-3.82,19.53,19.53,0,0,1-1.12-6.22c-.17-2.68-.19-5.37-.17-8.06,0-.1,0-.19,0-.45a8.55,8.55,0,0,1-4.09,2A10.6,10.6,0,0,1,46.06,68a3.32,3.32,0,0,1-1.29-1,1.61,1.61,0,0,1,.32-2.44,6.79,6.79,0,0,1,2.48-.92q.91-.24,1.82-.45c1.3-.3,1.94-1.34,2.75-2.35A8.51,8.51,0,0,1,48.63,60c-.3-.16-.4.1-.53.24-1.61,1.73-3.16,3.51-4.69,5.32A9.33,9.33,0,0,1,41.9,67a4,4,0,0,1-5.37-.16,13.88,13.88,0,0,1-3.41-4.65,74.74,74.74,0,0,1-5.65-17.44,47.23,47.23,0,0,1-1.09-6.31,22.8,22.8,0,0,1,1-9.5,10,10,0,0,1,7.5-6.72,24.62,24.62,0,0,1,11.64.27,32.88,32.88,0,0,1,3.89,1.14.66.66,0,0,0,.68-.05c3-2.14,6.43-2.23,9.91-2a7.15,7.15,0,0,1,1.32.18,6.6,6.6,0,0,0,3.38-.23,23.76,23.76,0,0,1,14.86.74,16.12,16.12,0,0,1,6.61,5.06,6.32,6.32,0,0,1,1,3.12,24.57,24.57,0,0,1-.79,9.59,62.13,62.13,0,0,1-7.95,18.63,3.05,3.05,0,0,1-.23.36c-.3.35-.13.52.23.64a8.3,8.3,0,0,0,3.42.26,32.23,32.23,0,0,0,3.23-.49,3.63,3.63,0,0,1,1.33,0A1.51,1.51,0,0,1,88.58,61.65Z"/><path class="a" d="M76.29,58.86a18.22,18.22,0,0,1-1.79-2.59C73.4,54.18,72.27,52.1,71.23,50a20.8,20.8,0,0,1-2.36-7.46,4.88,4.88,0,0,1,3.43-5.41,9.81,9.81,0,0,1,3.53-.39l1.1.06a20.06,20.06,0,0,0-3.08-5.63,18.36,18.36,0,0,0-14.7-7.7A11.4,11.4,0,0,0,47.93,30a19.6,19.6,0,0,0-1.81,5.25,19.16,19.16,0,0,0-.47,3.4,1,1,0,0,0,.6-.21A12.88,12.88,0,0,1,51.35,37a4.84,4.84,0,0,1,5.38,4c.22.92.38,1.86.52,2.8a18.2,18.2,0,0,1-1.1,10.34,44.7,44.7,0,0,0-1.8,4.62c-.12.37-.09.53.35.47a2.28,2.28,0,0,1,1,.11,4,4,0,0,1,2.74,3.87c0,4.46-.14,8.93.25,13.38A10.34,10.34,0,0,0,59.73,81a4.68,4.68,0,0,0,4.75,2.58,14.09,14.09,0,0,0,2.73-.54,6.07,6.07,0,0,0,4.66-5c.33-1.65.56-3.31.77-5,.43-3.3.9-6.6,1.08-9.93.09-1.73.67-3.16,2.48-3.77C76.6,59.24,76.45,59.07,76.29,58.86Z"/><path class="a" d="M46.4,58.35a9.74,9.74,0,0,1-3-8.37,41.77,41.77,0,0,0,.24-7.32,28.08,28.08,0,0,1,.41-7,21,21,0,0,1,3.4-8.6c.46-.64,1-1.22,1.53-1.9-.71-.2-1.34-.4-2-.56a24.49,24.49,0,0,0-10.12-.8A9.37,9.37,0,0,0,30,28.28a13.43,13.43,0,0,0-1.64,5.34,26.22,26.22,0,0,0,.47,8.13L33.73,59a21.56,21.56,0,0,0,2.76,5,7.41,7.41,0,0,0,1,1.11c1.34,1.14,2.45,1.12,3.65-.17,1.83-2,3.49-4.08,5.36-6C46.83,58.64,46.57,58.52,46.4,58.35Z"/><path class="a" d="M67.49,23.43a22.26,22.26,0,0,1,9.54,9c1.57,2.63,2.55,5.37,1.87,8.52a20.58,20.58,0,0,0-.15,7.53A19,19,0,0,1,79,52.13a10.6,10.6,0,0,1-1.32,4.8c-.12.22-.2.44,0,.58s.27-.16.36-.29a5.08,5.08,0,0,0,.36-.56,61.88,61.88,0,0,0,6.84-16,28.65,28.65,0,0,0,1.16-8.73,5.25,5.25,0,0,0-.9-3.15,15.37,15.37,0,0,0-3.44-3.21A17.66,17.66,0,0,0,71.6,22.71a22.6,22.6,0,0,0-4.31.48C67.31,23.36,67.4,23.39,67.49,23.43Z"/><path class="a" d="M52.48,58.42a36,36,0,0,1,1.76-4.63,14.84,14.84,0,0,0,1.13-3.57,22.39,22.39,0,0,0-.46-8.53A3,3,0,0,0,51.41,39a11.27,11.27,0,0,0-5.54,1.92.63.63,0,0,0-.32.65c.06.89.09,1.77.13,2.66a37,37,0,0,1-.24,5,9.28,9.28,0,0,0,.45,5.12,7.12,7.12,0,0,0,6,4.6C52.22,58.9,52.37,58.79,52.48,58.42Zm-1.9-17.29c-.19-.45-.1-.82.39-1a3,3,0,0,1,2.72.38.62.62,0,0,1,.15,1,1.91,1.91,0,0,1-1.46.76A2.16,2.16,0,0,1,50.58,41.14Z"/><path class="a" d="M77.17,39.27c.06-.41-.08-.56-.51-.58a16,16,0,0,0-2.78,0c-2.14.25-3.18,1.41-3.11,3.56a13,13,0,0,0,.9,3.94,64,64,0,0,0,3.86,7.87c.22.42.43.85.71,1.4.12-.27.18-.4.23-.53a12.2,12.2,0,0,0,.41-6,23.23,23.23,0,0,1-.2-5.85C76.85,41.79,77,40.53,77.17,39.27Zm-2.48,1.86a1.61,1.61,0,0,1-2.27-.22.57.57,0,0,1,.12-1,3.21,3.21,0,0,1,1.68-.42c.38,0,1-.06,1.13.48S75.05,40.85,74.69,41.14Z"/><path class="a" d="M55.28,61.29a.87.87,0,0,0-1,.19,11.4,11.4,0,0,0-1.07,1.23,6.46,6.46,0,0,1-4.42,2.69A11.67,11.67,0,0,0,46.5,66a5.89,5.89,0,0,0,2.58.78,7.25,7.25,0,0,0,7-2.68A1.93,1.93,0,0,0,55.28,61.29Z"/><path class="c" d="M85.41,61.62h0c-.82.1-1.64.23-2.46.29a7.85,7.85,0,0,1-5.09-.86A.56.56,0,0,0,77.4,61a1.82,1.82,0,0,0-1.72,1.81c-.15,1-.06,1.13.92,1.26a14,14,0,0,0,6.27-.64,8.44,8.44,0,0,0,2.92-1.67C85.71,61.6,85.55,61.65,85.41,61.62Z"/><path class="d" d="M85.8,61.51a4,4,0,0,0-.39.11c.15,0,.35-.17.39.14.09,0,.2-.07.19-.19S85.87,61.5,85.8,61.51Z"/><path class="d" d="M85.41,61.62h0c.13,0,.3,0,.39.14C85.76,61.45,85.57,61.59,85.41,61.62Z"/></svg>