<svg xmlns="http://www.w3.org/2000/svg" viewBox="0 0 251 78"><defs><style>.a{fill:#6e6e6e;}.b{fill:none;stroke:#6e6e6e;stroke-width:3.73px;}</style></defs><title>react_1</title><circle class="a" cx="43.96" cy="38.74" r="7.79"/><path class="b" d="M44,22.9c10.46,0,20.18,1.5,27.5,4,8.83,3,14.26,7.65,14.26,11.82,0,4.35-5.75,9.24-15.23,12.38-7.17,2.37-16.6,3.61-26.53,3.61-10.18,0-19.82-1.16-27.07-3.64C7.72,48,2.2,43,2.2,38.74S7.38,30,16.08,27c7.35-2.56,17.31-4.1,27.87-4.1Z"/><path class="b" d="M30.17,30.86C35.39,21.8,41.55,14.13,47.39,9c7-6.13,13.74-8.53,17.36-6.45,3.77,2.17,5.13,9.6,3.12,19.38-1.52,7.39-5.16,16.18-10.12,24.79-5.09,8.82-10.91,16.59-16.68,21.63-7.3,6.38-14.35,8.69-18,6.56s-5-8.84-3.24-17.9c1.45-7.65,5.1-17,10.38-26.19Z"/><path class="b" d="M30.18,46.79C24.94,37.74,21.37,28.57,19.88,21,18.09,11.81,19.36,4.8,23,2.71c3.76-2.18,10.88.35,18.35,7,5.65,5,11.44,12.55,16.42,21.15,5.1,8.81,8.92,17.74,10.41,25.25C70,65.59,68.5,72.86,64.81,75s-10.13-.12-17.12-6.13c-5.9-5.08-12.22-12.93-17.51-22.07Z"/><path class="a" d="M139.31,58.7,128.69,42.65c5.37-.47,10.21-4.37,10.21-11.45,0-7.26-5.13-11.86-12.33-11.86H110.75V58.7h4.9V43.06h7.85l10,15.64ZM126,38.76H115.65v-15H126c4.66,0,7.85,3.07,7.85,7.49s-3.19,7.55-7.85,7.55Zm31.57,20.65A15.48,15.48,0,0,0,168.88,55l-2.12-2.89a12.46,12.46,0,0,1-8.79,3.6c-6.14,0-9.91-4.48-10.27-9.86h23.07V44.77c0-8.56-5.08-15.28-13.69-15.28-8.14,0-14,6.67-14,14.93,0,8.91,6.08,15,14.52,15Zm8.85-16.76H147.69c.24-4.37,3.25-9.5,9.32-9.5,6.49,0,9.32,5.25,9.38,9.5ZM200.16,58.7V39.11c0-6.9-5-9.62-11-9.62a14.92,14.92,0,0,0-11.39,4.72l2.07,3.07a11.32,11.32,0,0,1,8.73-4c4.13,0,7.2,2.18,7.2,6v5.13c-2.3-2.66-5.55-3.89-9.44-3.89-4.84,0-10,3-10,9.38,0,6.2,5.13,9.44,10,9.44a12.33,12.33,0,0,0,9.44-4V58.7Zm-12.27-2.48c-4.13,0-7-2.6-7-6.2s2.89-6.26,7-6.26a9.55,9.55,0,0,1,7.85,3.54v5.37a9.55,9.55,0,0,1-7.85,3.54Zm33.7,3.19a12.2,12.2,0,0,0,10.45-5l-3-2.71a8.59,8.59,0,0,1-7.26,3.72c-6.08,0-9.86-4.72-9.86-11s3.78-11,9.86-11a8.45,8.45,0,0,1,7.26,3.72l3-2.71a12.2,12.2,0,0,0-10.45-5c-8.5,0-14.22,6.49-14.22,14.93s5.72,15,14.22,15Zm23.84,0a7.23,7.23,0,0,0,5.31-1.83l-1.3-3.3a4.27,4.27,0,0,1-3,1.18c-1.95,0-2.89-1.53-2.89-3.66V34.09h5.78V30.2h-5.78V22.41H239.1V30.2h-4.72v3.89h4.72V52.74c0,4.25,2.12,6.67,6.31,6.67Z"/></svg>