<svg xmlns="http://www.w3.org/2000/svg" viewBox="0 0 368 104"><defs><style>.a{fill:#6e6e6e;}.b{fill:none;stroke:#6e6e6e;stroke-width:4.13px;}</style></defs><title>react</title><circle class="a" cx="88.15" cy="52.53" r="8.63"/><path class="b" d="M88.15,35c11.59,0,22.36,1.66,30.48,4.46,9.78,3.37,15.8,8.47,15.8,13.1,0,4.82-6.37,10.24-16.88,13.72-7.94,2.63-18.39,4-29.4,4-11.28,0-22-1.29-30-4-10.16-3.47-16.28-9-16.28-13.69s5.74-9.65,15.39-13C65.41,36.67,76.44,35,88.15,35Z"/><path class="b" d="M72.87,43.8c5.79-10,12.61-18.54,19.09-24.18,7.8-6.79,15.23-9.45,19.24-7.14,4.17,2.41,5.69,10.64,3.45,21.48-1.69,8.2-5.72,17.94-11.22,27.47C97.8,71.2,91.34,79.81,85,85.4,76.87,92.46,69,95,65,92.66s-5.49-9.8-3.59-19.83C63,64.35,67,53.94,72.87,43.8Z"/><path class="b" d="M72.88,61.45c-5.81-10-9.76-20.19-11.41-28.61-2-10.15-.58-17.92,3.42-20.23,4.17-2.41,12.06.39,20.33,7.73,6.26,5.56,12.68,13.91,18.2,23.44,5.65,9.76,9.89,19.66,11.54,28,2.09,10.53.4,18.58-3.69,21s-11.23-.13-19-6.8c-6.54-5.63-13.54-14.33-19.41-24.46Z"/><path class="a" d="M193.83,74.66,182.05,56.87c6-.52,11.31-4.84,11.31-12.69,0-8-5.69-13.15-13.67-13.15H162.17V74.66h5.43V57.32h8.7l11.12,17.33ZM179,52.55H167.6V35.87H179c5.17,0,8.7,3.4,8.7,8.31s-3.53,8.37-8.7,8.37Zm35,22.89a17.16,17.16,0,0,0,12.56-4.84l-2.35-3.2a13.81,13.81,0,0,1-9.74,4c-6.8,0-11-5-11.38-10.92h25.57V59.22c0-9.48-5.62-16.94-15.17-16.94-9,0-15.56,7.39-15.56,16.55,0,9.88,6.74,16.61,16.09,16.61Zm9.81-18.57H203.11c.26-4.84,3.6-10.53,10.33-10.53,7.19,0,10.33,5.82,10.4,10.53Zm37.41,17.79V52.94c0-7.65-5.56-10.66-12.23-10.66a16.54,16.54,0,0,0-12.62,5.23l2.29,3.4a12.55,12.55,0,0,1,9.68-4.38c4.58,0,8,2.42,8,6.67v5.69c-2.55-2.94-6.15-4.32-10.46-4.32-5.36,0-11.05,3.34-11.05,10.4,0,6.87,5.69,10.46,11.05,10.46a13.66,13.66,0,0,0,10.46-4.38v3.6Zm-13.6-2.75c-4.58,0-7.78-2.88-7.78-6.87s3.2-6.93,7.78-6.93a10.58,10.58,0,0,1,8.7,3.92v6a10.58,10.58,0,0,1-8.7,3.92ZM285,75.44c5.76,0,9.16-2.35,11.58-5.49l-3.27-3a9.52,9.52,0,0,1-8,4.12c-6.74,0-10.92-5.23-10.92-12.23s4.19-12.16,10.92-12.16a9.37,9.37,0,0,1,8,4.12l3.27-3c-2.42-3.14-5.82-5.49-11.58-5.49-9.42,0-15.76,7.19-15.76,16.55S275.57,75.44,285,75.44Zm26.42,0a8,8,0,0,0,5.89-2l-1.44-3.66a4.73,4.73,0,0,1-3.34,1.31c-2.16,0-3.2-1.7-3.2-4.05V47.38h6.41V43.07h-6.41V34.43h-4.9v8.63h-5.23v4.32h5.23V68c0,4.71,2.35,7.39,7,7.39Z"/></svg>